<svg id="Camada_1" data-name="Camada 1" xmlns="http://www.w3.org/2000/svg" xmlns:xlink="http://www.w3.org/1999/xlink" viewBox="0 0 512.03 512.03"><defs><style>.cls-1{fill-rule:evenodd;fill:url(#Gradiente_sem_nome_23);}.cls-2{fill:#fff;}.cls-3{fill:none;}</style><linearGradient id="Gradiente_sem_nome_23" x1="38.43" y1="130.38" x2="473.56" y2="381.61" gradientUnits="userSpaceOnUse"><stop offset="0" stop-color="#ba2389"/><stop offset="0.35" stop-color="#cd2375"/><stop offset="1" stop-color="#f92246"/></linearGradient></defs><path class="cls-1" d="M256,4.93c138.74,0,251.22,112.4,251.22,251.06S394.74,507.07,256,507.07,4.78,394.65,4.78,256,117.26,4.93,256,4.93Z" transform="translate(0 0.03)"/><path class="cls-2" d="M419,261.16c0,36.55-43.19,66.79-100.22,85.2-4.07,1.32-7.6.27-8.69-2.89-1.1-3.41-.28-5.79,7.6-9.2,32.6-14.21,60-35.5,60-56.81,0-42.08-83.39-74.17-182.24-74.17-15.21,0-29.07.8-41.82,1.85a111,111,0,0,0-9.51,45.49c0,31.84,13.57,63.91,38,85.47,3.25,2.91,3.52,5.54,1.36,8.43s-5.44,2.88-9.24.52c-38.57-23.94-63.54-67.59-62.47-113.61A101.2,101.2,0,0,1,114,210.91c-12.77,2.63-25,5.54-36.94,9-3.8,1-6.51,0-7.88-2.88-1.34-3.16,0-5.79,3.8-7.9,13.86-7.62,29.62-13.94,46.72-19.2,18.73-50,67.91-86,125.75-87.06,44.26-.78,81.75,19,107.28,48.14,3,3.41,3.25,6,.54,8.68s-5.44,2.35-9-.53c-19.55-16.05-48.6-26.83-77.67-26.83-39.37,0-74.68,18.15-97,46.29a397.22,397.22,0,0,1,64.65-5.52c103.2,0,184.68,38.39,184.68,88.11ZM276.24,431.05l-29.56,0V331.25l27.51-15.58c3.32-1.85,7.31-.37,7.31,3.72V425.87a5.22,5.22,0,0,1-5.26,5.18Zm-59.64,0a3.38,3.38,0,0,1-3.4-3.33V354.08a6.27,6.27,0,0,1,3.44-5.81l20.78-11.78v94.56Z" transform="translate(0 0.03)"/><rect class="cls-3" width="512.03" height="512.03"/></svg>