<svg width="105" height="105" viewBox="0 0 105 105" fill="none" xmlns="http://www.w3.org/2000/svg">
<rect width="105" height="105" fill="#E5E5E5"/>
<rect width="1920" height="1080" transform="translate(-347 -221)" fill="white"/>
<rect width="105" height="105" rx="23" fill="#0B2859"/>
<path fill-rule="evenodd" clip-rule="evenodd" d="M79.872 45.5866C73.4153 45.5866 70.4515 48.3097 70.4515 54.5334V55.4884C70.4515 61.3938 73.0271 64.2584 79.0958 64.2584C81.0364 64.2584 82.9769 63.9047 84.353 62.8085V63.5159C84.353 66.8398 82.9065 67.936 79.5191 67.936H77.4917C76.3316 67.9565 75.8052 68.1625 75.1058 69.3103L75.1024 69.309C69.2846 78.5366 59.1845 84.1745 48.1774 84.1745C30.6151 84.1745 16.3275 69.8543 16.3275 52.2522C16.3275 34.6502 30.6151 20.3301 48.1774 20.3301C60.5136 20.3301 71.7356 27.4905 76.9865 38.6331H78.4497C73.0993 26.7015 61.2366 19 48.1774 19C29.8834 19 15 33.9167 15 52.2522C15 70.5876 29.8834 85.5046 48.1774 85.5046C58.9362 85.5046 68.8647 80.3342 75.0547 71.7553H79.8016C86.0465 71.7553 89.2572 69.3859 89.2572 63.3388V54.2152C89.2572 48.2035 86.1878 45.5866 79.872 45.5866ZM84.3885 56.0895C84.3885 59.4135 83.2241 60.4391 79.8721 60.4391C76.0968 60.4391 75.3559 59.1307 75.3559 55.276V54.6749C75.3559 50.8558 76.0261 49.4765 79.8721 49.4765C83.6474 49.4765 84.3885 50.8204 84.3885 54.7105V56.0895ZM34.3218 56.2664V38.9033L39.2615 38.1251V47.0719C40.6727 45.9757 42.7544 45.5866 44.6596 45.5866C50.6577 45.5866 53.4097 48.5572 53.4097 54.6394V56.3015C53.4097 62.7731 50.4461 65.39 43.7423 65.39C37.2856 65.39 34.3218 62.7023 34.3218 56.2664ZM48.5056 54.8163C48.5056 50.8204 47.3059 49.4765 43.9188 49.4765C40.3906 49.4765 39.1909 50.679 39.1909 54.2506V56.2664C39.1909 60.1914 40.3906 61.5353 43.8484 61.5353C47.3059 61.5353 48.5056 60.1914 48.5056 56.3016V54.8163ZM68.0171 50.1485L68.8286 46.1878H61.8426V40.7774L56.9382 41.5199V57.6808C56.9382 63.2682 59.1256 64.9301 65.0886 64.9301H67.6995L68.511 61.005H65.4414C62.7245 61.005 61.8426 60.3329 61.8426 57.3626V50.1485H68.0171Z" fill="white"/>
</svg>
