<?xml version="1.0" encoding="utf-8"?>
<!-- Generator: Adobe Illustrator 25.2.3, SVG Export Plug-In . SVG Version: 6.00 Build 0)  -->
<svg version="1.1" id="Layer_1" xmlns="http://www.w3.org/2000/svg" xmlns:xlink="http://www.w3.org/1999/xlink" x="0px" y="0px"
	 viewBox="0 0 600 600" style="enable-background:new 0 0 600 600;" xml:space="preserve">
<style type="text/css">
	.st0{fill:#004A8F;}
	.st1{fill:#FFF200;}
</style>
<g>
	<g>
		<path class="st0" d="M200.02,150H400c27.64,0,50,22.42,50,50.03v200c0,27.6-22.37,49.97-50,49.97H200.02
			c-27.65,0-50.02-22.37-50.02-49.97v-200C150,172.42,172.37,150,200.02,150"/>
		<rect x="175" y="299.98" class="st1" width="23.32" height="100.03"/>
		<path class="st1" d="M316.14,372.33c0,1.19-0.11,2.55-0.39,3.77c-0.04,0.16-0.19,0.68-0.23,0.79c-0.05,0.13-0.1,0.26-0.15,0.38
			c-2.07,4.89-7.54,9.49-14.9,9.49c-6.41,0-10.83-3.32-10.83-9.62c0-7.05,6.02-10.69,15.01-12.08c2.1-0.33,4.41-0.53,6.89-0.63
			c1.49-0.05,3.03-0.07,4.61-0.05L316.14,372.33L316.14,372.33z M302.82,322.85c-14.3,0-24.97,3.71-30.76,7.08l4.38,14.74
			c5.26-3.18,14.32-6.04,22.5-6.04c13.64-0.04,16.52,6.9,16.52,10.41v0.8c-30.23-0.12-48.91,9.69-48.91,29.07
			c0,11.4,9.04,22.92,25.72,22.92c9.94,0,18.33-3.6,23.42-9.63h0.25l2.55,7.79h18.98v-44.33
			C337.48,337.65,328.63,322.85,302.82,322.85"/>
		<path class="st1" d="M401.91,325.05v43.93c0,1.77-0.22,3.35-0.79,4.76c-1.86,4.51-6.47,9.62-14.04,9.62
			c-9.52,0-13.69-7-13.69-18.7v-39.66h-22.76v43.83c0,5.87,0.71,10.85,2.12,14.96c1.41,4.11,3.33,7.52,5.78,10.18
			c2.45,2.68,5.39,4.63,8.81,5.87c3.42,1.23,7.2,1.85,11.32,1.85c3.59,0,6.77-0.45,9.54-1.32c2.77-0.87,5.16-1.92,7.17-3.16
			c2.01-1.22,3.69-2.56,5.05-4c1.35-1.44,2.43-2.72,3.18-3.86l2.93,10.65H425v-74.94L401.91,325.05L401.91,325.05z"/>
		<path class="st1" d="M220.21,299.98v25.03h-10.63v17.09h10.63v30.48c0,10.08,2.02,17.65,6.39,22.25
			c3.75,4.03,10.34,7.01,18.33,7.01c6.86,0,9.56-1.03,12.64-2.21v-17.41c-0.63,0.3-2.43,0.65-4.76,0.65
			c-8.08,0-9.95-5.03-9.95-14.21v-26.55h14.47V325h-14.47v-25.03L220.21,299.98L220.21,299.98z"/>
		<polygon class="st1" points="393.29,299.97 379.24,320.17 395.51,320.17 415.33,299.97 		"/>
	</g>
</g>
</svg>
