<?xml version="1.0" encoding="utf-8"?>
<!-- Generator: Adobe Illustrator 25.4.1, SVG Export Plug-In . SVG Version: 6.00 Build 0)  -->
<svg version="1.1" id="Layer_1" xmlns="http://www.w3.org/2000/svg" xmlns:xlink="http://www.w3.org/1999/xlink" x="0px" y="0px"
	 viewBox="0 0 512 512" style="enable-background:new 0 0 512 512;" xml:space="preserve">
<style type="text/css">
	.st0{fill:#EC0000;}
</style>
<path class="st0" d="M354.3,237.9c-0.7-15.6-5-31-13.1-44.9l-71-123c-5.4-9.4-9.2-19.4-11.2-29.7l-3,5.1
	c-17.6,30.4-17.6,67.9,0,98.4l56.8,98.4c17.6,30.4,17.6,68,0,98.4l-3,5.1c-2.1-10.3-5.8-20.4-11.2-29.7l-52-90.1l-33.2-57.5
	c-5.4-9.4-9.2-19.4-11.2-29.7l-3,5.1c-17.5,30.3-17.6,67.7-0.2,98.1l0,0l57,98.7c17.6,30.4,17.6,67.9,0,98.4l-3,5.1
	c-2.1-10.3-5.8-20.4-11.2-29.7l-71-123c-9.5-16.5-13.9-35.1-13.1-53.5c-76,19.9-128.5,62-128.5,110.9c0,67.9,101.5,123,226.8,123
	c125.2,0,226.8-55.1,226.8-123C482.8,299.9,430.3,257.8,354.3,237.9"/>
</svg>
